<?xml version="1.0" encoding="UTF-8"?>
<svg id="Ebene_1" xmlns="http://www.w3.org/2000/svg" version="1.1" xmlns:xlink="http://www.w3.org/1999/xlink" viewBox="0 0 86 86">
  <!-- Generator: Adobe Illustrator 29.5.1, SVG Export Plug-In . SVG Version: 2.1.0 Build 141)  -->
  <defs>
    <style>
      .st0 {
        fill: none;
      }

      .st1 {
        fill: #ca0d19;
      }

      .st2 {
        fill: #5f1415;
      }

      .st3 {
        fill: #eaf5fb;
      }

      .st4 {
        fill: #620103;
      }

      .st5 {
        display: none;
      }

      .st6 {
        clip-path: url(#clippath);
      }
    </style>
    <clipPath id="clippath">
      <path class="st0" d="M37.4,15.7l.9.3,5.2,6.7c1.8-2.2,3.6-4.5,5.4-6.8l.8-.3h17.7c0,.4.5.6.7.8,3.1,4,6,8.2,9.1,12.2s.5,1.8.5,1.9c-.9,4.6-1.9,9.1-2.9,13.6s-.2,2-1.2,3.6c-2.4,3.8-4.8,7.9-7.4,11.7s-2.8,1.8-4.2,2.5c-5.8,2.9-11.5,6.1-17.5,8.8s-.5.3-.7.5h-.5c-.2-.1-.5-.4-.7-.5-6.3-2.9-12.5-6.3-18.9-9.6s-1.6-.6-2.2-1-1.7-2.2-2-2.7c-1.7-2.6-3.2-5.3-4.8-7.9s-1.5-1.9-1.9-3.3c-1.3-4.7-2.1-9.7-3.1-14.6,0,0-.5-2.2-.5-2.5s6.6-9.2,9.6-13.3l.9-.3h17.7Z"/>
    </clipPath>
  </defs>
  <g id="Shape_1">
    <polygon points="72.4 6.5 51.2 6.5 43.6 17 35.8 6.3 14.6 6.3 1.7 24.5 6.2 47 16.3 64.2 43.5 79 43.5 79.3 70.7 64.4 80.8 47.2 85.3 24.7 72.4 6.5"/>
  </g>
  <g id="Shape_11" data-name="Shape_1">
    <polygon class="st3" points="69.8 12.1 50.5 12.1 43.5 21.3 36.5 12.1 17.2 12.1 5.6 27.8 9.6 47.2 18.8 62.1 43.5 74.9 43.5 74.5 43.5 74.9 68.2 62.1 77.4 47.2 81.4 27.8 69.8 12.1"/>
  </g>
  <g>
    <path class="st4" d="M38.3,16c1.8,1.1,5.2,6.7,5.2,6.7,1.8-2.2,3.8-5.9,5.8-6.9,4.1-2,13.8-2.1,17.8-.1s6.9,9.1,10,13,.5,1.8.5,1.9c-.9,4.6-1.9,9.1-2.9,13.6s-.2,2-1.2,3.6c-2.4,3.8-4.8,7.9-7.4,11.7s-2.8,1.8-4.2,2.5c-5.8,2.9-11.5,6.1-17.5,8.8s-.5.3-.7.5h-.5c-.2-.1-.5-.4-.7-.5-6.3-2.9-12.5-6.3-18.9-9.6s-1.6-.6-2.2-1-1.7-2.2-2-2.7c-1.7-2.6-3.2-5.3-4.8-7.9s-1.5-1.9-1.9-3.3c-1.3-4.7-4.5-12.8-3.6-17s5.4-11.4,9.9-13.7,15.1-2.1,19.2.4Z"/>
    <path class="st1" d="M66.8,16.9c.4.7,9.8,13,9.8,13-.1.6-3,15.4-4.3,17.4-2.3,3.6-4.5,7.6-6.9,11.2s-4.2,2.4-5.4,3c-5.2,2.6-10.2,5.4-15.5,7.9s-.7.4-.9.5c0,0-.8-.4-1-.5-6-2.8-18.7-8-20.9-11.1-2.2-3.1-4.2-6.6-6.2-9.8s-1.2-1.7-1.7-3.6c-.9-3.7-3.2-14.8-3.1-15.3l9.9-12.8h16c.3.3.6.5.8.8,1.4,1.7,2.7,3.8,4.1,5.5s1.1,1,1.6,1.6h1l2.3-2.5,4.2-5.4h16.4Z"/>
  </g>
  <path class="st2" d="M64.5,47.8c1.9,1.2,5.9,3.6,5.3,6s-4.1,6.3-4.5,6.6l-20.6,10.6c-.7.2-1.6.7-2.3.4l-21-11.1-4-6.1c-1.2-2.7,2.7-5.2,4.8-6.6,4.8-3.1,16.7-5,22.4-4.7,9,0,15.1,1.6,19.9,4.8Z"/>
  <g>
    <path class="st5" d="M9.7,32.1c1.3-.3,5,.4,5.9,0s2.9-4.5,3-4.8c.4-1.6-2.7-4.3-2.9-6.1,1,.4,3,5,3.4,5.2s6.8.1,7.1,0,3.1-5,3.1-5.3c0-.7-2.8-4.1-3.1-5.1,1.6.4,2.7,4.7,3.9,5s5.8,0,6.2,0c1-.3,1.4-2.8,2.6-3.1,0,.8-1.9,2.9-1.9,3.4s3.1,5.1,3.4,5.2c.6.2,6.5,0,6.9-.3s2.9-4.7,3-5c0-1.1-2-2.6-1.9-3.9.9.4,1.9,3.3,2.6,3.5s5.8.1,6.2,0c1.3-.3,2.5-4.3,3.8-5,0,1.2-3,4.6-2.9,5.3s3,4.9,3.3,5.1c.4.2,6.3.2,6.8,0,.8-.3,2.3-4.5,3.5-5,0,1.3-3,4.6-3,5.4s3.1,5.4,3.4,5.4h5.4s0,.5,0,.5h-5.4c-.3,0-3.4,5.2-3.4,5.6s2.8,5,3.1,5.1c.5.2,3.3-.3,3.3.4s-2.5.2-3.2.6-3.1,4.7-3.1,5c0,.8,2.1,2.6,1.8,3.8-.8-.6-1.7-3.3-2.6-3.5s-5.8-.1-6.2,0-3.6,5.1-3.7,5.4,3,5.3,3.3,5.5c.6.3,4.3-.2,3.6.4s-2.8,0-3.6.4-.8,2.1-1.9,2.3c.1-1,1.5-1.9,1.4-2.9s-2.8-5-3.1-5.1-6.4-.1-6.7,0-3.5,5.2-3.5,5.5,2.9,4.8,3.2,5c1,.6,2.9-.3,3,.7-2.8,0-2.8.4-4.5,2.2,0-.9,1.2-1.5,1.2-2.5s-2.8-5-3.1-5.1-6.1-.2-6.5,0-3.6,4.8-3.6,5.2c0,.7,1.3,1.9,1.3,2.6-1.9-2.3-2.1-2.2-5.3-2.4.8-1.1,2.6,0,3.6-.6s3.1-4.8,3.1-5.1-2.8-5.4-3.1-5.5c-.5-.2-6.5-.1-7,.2s-3.2,4.9-3.2,5.2c0,.6,1.6,2.2,1.6,2.9-.9.1-1.7-2.6-1.9-2.6h-3.7c0,0-.4-.3-.4-.5h3.7c.3,0,3.2-4.8,3.3-5.1.2-.9-2.7-5.7-3.5-5.9s-5.9,0-6.2,0-2.8,4.9-2.8,3.4,2.3-2.7,2.1-3.9-2.8-4.8-3.1-5c-.5-.2-3.5.3-3.5-.4s3-.2,3.6-.5,3.1-4.8,3-5.4-2.8-5.1-3.1-5.2c-.8-.4-4.7.2-5.9,0v-.5ZM36.6,21.5c-.3-.1-5.8-.2-6.3,0-.8.2-3.8,4.8-3.8,5.4s3,5.1,3.3,5.3c.5.2,6.5.2,7,0s3.1-4.9,3.1-5.2-2.9-5.2-3.1-5.3ZM57.7,21.5c-.3-.1-5.8-.2-6.3,0-.8.2-3.9,4.9-3.9,5.4s3,5.1,3.3,5.3c.5.2,6.5.2,7,0s3.1-4.9,3.1-5.2-2.9-5.2-3.1-5.3ZM26.1,37.8c.3-.1,3.1-5,3.1-5.3s-2.7-5-3-5.1c-.5-.3-6.8-.4-7.3-.2s-3.1,5-3.1,5.3,2.8,4.9,3.1,5c.6.4,6.5.6,7.1.3ZM47.1,37.8c.3-.1,3.1-5,3.1-5.3s-2.7-5-3-5.1c-.6-.4-6.4-.4-7.1-.1s-3.3,4.9-3.3,5.2c0,.5,3.2,5.3,3.9,5.4s6,0,6.3,0ZM68.2,37.8c.3-.1,3.1-5,3.1-5.3s-2.6-4.8-2.9-5c-.7-.5-6.4-.6-7.2-.3s-3.3,4.9-3.3,5.3,2.8,4.8,3,5c.6.5,6.4.6,7.1.3ZM36.6,32.7c-.6-.3-7,.2-7,.2,0,0-3.2,5.1-3.2,5.4s2.8,5,3.1,5.1c.6.3,6.8.1,7.3-.3s2.9-4.7,2.9-5-2.9-5.2-3.1-5.3ZM57.7,32.7c-.6-.3-6.5-.1-7.1.3s-3.1,4.9-3.1,5.2,2.8,5,3.1,5.1c.6.3,6.8.1,7.3-.3s2.9-4.7,2.9-5-2.9-5.2-3.1-5.3ZM26.1,38.4c-.3-.1-5.8-.2-6.3,0-.8.2-3.9,4.9-3.9,5.4s3,5.1,3.3,5.2c.5.2,6.5.2,7,0s3.1-4.9,3.1-5.2-2.9-5.2-3.1-5.3ZM47.1,38.4c-.7-.3-6.5-.1-7.1.3s-3.1,4.7-3.1,5,3,5.1,3.3,5.2c.6.3,6.5.2,7.1-.1s3-4.8,3-5.1-2.9-5.2-3.1-5.3ZM68.2,38.4c-.7-.3-6.5-.1-7.1.3s-3.1,4.7-3.1,5,3,5.1,3.3,5.2c.6.3,6.5.2,7.1-.1s3-4.8,3-5.1-2.9-5.2-3.1-5.3ZM36.6,54.8c.3-.1,3.1-5,3.1-5.3s-2.7-5-3-5.1c-.6-.4-6.4-.4-7.1-.1s-3.3,4.9-3.3,5.3c0,.6,3,5.2,3.8,5.4s6,0,6.3,0ZM57.7,54.8c.3-.1,3.1-5,3.1-5.3s-2.7-5-3-5.1c-.6-.3-6.5-.4-7.1-.1s-3.3,5-3.3,5.3,2.8,4.8,3,5c.6.4,6.4.6,7.1.3ZM40.4,49.6c-.3.1-3.5,5.3-3.4,5.7s3,5,3.2,5.2c.5.2,6.2.2,6.7,0s3.3-4.8,3.3-5.1c0-.6-2.9-5.6-3.5-5.7s-6.1-.1-6.4,0Z"/>
    <g class="st6">
      <g>
        <path d="M37.2,44.3h-6.9l-3.5-6,3.5-6h6.9l3.5,6-3.5,6ZM30.5,43.8h6.4l3.2-5.5-3.2-5.5h-6.4l-3.2,5.5,3.2,5.5Z"/>
        <path d="M47.1,38.5h-6.9l-3.5-6,3.5-6h6.9l3.5,6-3.5,6ZM40.5,38h6.4l3.2-5.5-3.2-5.5h-6.4l-3.2,5.5,3.2,5.5Z"/>
        <path d="M47.1,50.1h-6.9l-3.5-6,3.5-6h6.9l3.5,6-3.5,6ZM40.5,49.6h6.4l3.2-5.5-3.2-5.5h-6.4l-3.2,5.5,3.2,5.5Z"/>
        <path d="M57.1,44.3h-6.9l-3.5-6,3.5-6h6.9l3.5,6-3.5,6ZM50.4,43.8h6.4l3.2-5.5-3.2-5.5h-6.4l-3.2,5.5,3.2,5.5Z"/>
        <path d="M67,38.6h-6.9l-3.5-6,3.5-6h6.9l3.5,6-3.5,6ZM60.4,38.1h6.4l3.2-5.5-3.2-5.5h-6.4l-3.2,5.5,3.2,5.5Z"/>
        <path d="M67,50.1h-6.9l-3.5-6,3.5-6h6.9l3.5,6-3.5,6ZM60.4,49.6h6.4l3.2-5.5-3.2-5.5h-6.4l-3.2,5.5,3.2,5.5Z"/>
        <path d="M47.1,61.6h-6.9l-3.5-6,3.5-6h6.9l3.5,6-3.5,6ZM40.5,61.1h6.4l3.2-5.5-3.2-5.5h-6.4l-3.2,5.5,3.2,5.5Z"/>
        <path d="M57.1,55.8h-6.9l-3.5-6,3.5-6h6.9l3.5,6-3.5,6ZM50.4,55.3h6.4l3.2-5.5-3.2-5.5h-6.4l-3.2,5.5,3.2,5.5Z"/>
        <path d="M57.1,67.3h-6.9l-3.5-6,3.5-6h6.9l3.5,6-3.5,6ZM50.4,66.8h6.4l3.2-5.5-3.2-5.5h-6.4l-3.2,5.5,3.2,5.5Z"/>
        <path d="M67,61.6h-6.9l-3.5-6,3.5-6h6.9l3.5,6-3.5,6ZM60.4,61.1h6.4l3.2-5.5-3.2-5.5h-6.4l-3.2,5.5,3.2,5.5Z"/>
        <path d="M77,55.8h-6.9l-3.5-6,3.5-6h6.9l3.5,6-3.5,6ZM70.4,55.3h6.4l3.2-5.5-3.2-5.5h-6.4l-3.2,5.5,3.2,5.5Z"/>
        <path d="M77,67.4h-6.9l-3.5-6,3.5-6h6.9l3.5,6-3.5,6ZM70.4,66.9h6.4l3.2-5.5-3.2-5.5h-6.4l-3.2,5.5,3.2,5.5Z"/>
        <path d="M7.3,61.6H.3l-3.5-6,3.5-6h6.9l3.5,6-3.5,6ZM.6,61.1h6.4l3.2-5.5-3.2-5.5H.6l-3.2,5.5,3.2,5.5Z"/>
        <path d="M17.2,55.8h-6.9l-3.5-6,3.5-6h6.9l3.5,6-3.5,6ZM10.6,55.3h6.4l3.2-5.5-3.2-5.5h-6.4l-3.2,5.5,3.2,5.5Z"/>
        <path d="M17.2,67.3h-6.9l-3.5-6,3.5-6h6.9l3.5,6-3.5,6ZM10.6,66.8h6.4l3.2-5.5-3.2-5.5h-6.4l-3.2,5.5,3.2,5.5Z"/>
        <path d="M27.2,61.6h-6.9l-3.5-6,3.5-6h6.9l3.5,6-3.5,6ZM20.5,61.1h6.4l3.2-5.5-3.2-5.5h-6.4l-3.2,5.5,3.2,5.5Z"/>
        <path d="M37.2,55.8h-6.9l-3.5-6,3.5-6h6.9l3.5,6-3.5,6ZM30.5,55.3h6.4l3.2-5.5-3.2-5.5h-6.4l-3.2,5.5,3.2,5.5Z"/>
        <path d="M37.2,67.3h-6.9l-3.5-6,3.5-6h6.9l3.5,6-3.5,6ZM30.5,66.8h6.4l3.2-5.5-3.2-5.5h-6.4l-3.2,5.5,3.2,5.5Z"/>
        <path d="M-2.7,44.3h-6.9l-3.5-6,3.5-6H-2.7l3.5,6-3.5,6ZM-9.3,43.8H-3L.2,38.3l-3.2-5.5h-6.4l-3.2,5.5,3.2,5.5Z"/>
        <path d="M7.3,38.6H.3l-3.5-6L.3,26.6h6.9l3.5,6-3.5,6ZM.6,38.1h6.4l3.2-5.5-3.2-5.5H.6l-3.2,5.5,3.2,5.5Z"/>
        <path d="M7.3,50.1H.3l-3.5-6,3.5-6h6.9l3.5,6-3.5,6ZM.6,49.6h6.4l3.2-5.5-3.2-5.5H.6l-3.2,5.5,3.2,5.5Z"/>
        <path d="M17.2,44.3h-6.9l-3.5-6,3.5-6h6.9l3.5,6-3.5,6ZM10.6,43.8h6.4l3.2-5.5-3.2-5.5h-6.4l-3.2,5.5,3.2,5.5Z"/>
        <path d="M27.2,38.6h-6.9l-3.5-6,3.5-6h6.9l3.5,6-3.5,6ZM20.5,38.1h6.4l3.2-5.5-3.2-5.5h-6.4l-3.2,5.5,3.2,5.5Z"/>
        <path d="M27.2,50.1h-6.9l-3.5-6,3.5-6h6.9l3.5,6-3.5,6ZM20.5,49.6h6.4l3.2-5.5-3.2-5.5h-6.4l-3.2,5.5,3.2,5.5Z"/>
        <path d="M7.3,27H.3l-3.5-6L.3,15h6.9l3.5,6-3.5,6ZM.6,26.5h6.4l3.2-5.5-3.2-5.5H.6l-3.2,5.5,3.2,5.5Z"/>
        <path d="M17.2,21.3h-6.9l-3.5-6,3.5-6h6.9l3.5,6-3.5,6ZM10.6,20.8h6.4l3.2-5.5-3.2-5.5h-6.4l-3.2,5.5,3.2,5.5Z"/>
        <path d="M17.2,32.8h-6.9l-3.5-6,3.5-6h6.9l3.5,6-3.5,6ZM10.6,32.3h6.4l3.2-5.5-3.2-5.5h-6.4l-3.2,5.5,3.2,5.5Z"/>
        <path d="M27.2,27h-6.9l-3.5-6,3.5-6h6.9l3.5,6-3.5,6ZM20.5,26.5h6.4l3.2-5.5-3.2-5.5h-6.4l-3.2,5.5,3.2,5.5Z"/>
        <path d="M37.2,21.3h-6.9l-3.5-6,3.5-6h6.9l3.5,6-3.5,6ZM30.5,20.8h6.4l3.2-5.5-3.2-5.5h-6.4l-3.2,5.5,3.2,5.5Z"/>
        <path d="M37.2,32.8h-6.9l-3.5-6,3.5-6h6.9l3.5,6-3.5,6ZM30.5,32.3h6.4l3.2-5.5-3.2-5.5h-6.4l-3.2,5.5,3.2,5.5Z"/>
        <path d="M47.1,27h-6.9l-3.5-6,3.5-6h6.9l3.5,6-3.5,6ZM40.5,26.5h6.4l3.2-5.5-3.2-5.5h-6.4l-3.2,5.5,3.2,5.5Z"/>
        <path d="M57.1,21.2h-6.9l-3.5-6,3.5-6h6.9l3.5,6-3.5,6ZM50.4,20.7h6.4l3.2-5.5-3.2-5.5h-6.4l-3.2,5.5,3.2,5.5Z"/>
        <path d="M57.1,32.8h-6.9l-3.5-6,3.5-6h6.9l3.5,6-3.5,6ZM50.4,32.3h6.4l3.2-5.5-3.2-5.5h-6.4l-3.2,5.5,3.2,5.5Z"/>
        <path d="M67,27h-6.9l-3.5-6,3.5-6h6.9l3.5,6-3.5,6ZM60.4,26.5h6.4l3.2-5.5-3.2-5.5h-6.4l-3.2,5.5,3.2,5.5Z"/>
        <path d="M77,21.3h-6.9l-3.5-6,3.5-6h6.9l3.5,6-3.5,6ZM70.4,20.8h6.4l3.2-5.5-3.2-5.5h-6.4l-3.2,5.5,3.2,5.5Z"/>
        <path d="M77,32.8h-6.9l-3.5-6,3.5-6h6.9l3.5,6-3.5,6ZM70.4,32.3h6.4l3.2-5.5-3.2-5.5h-6.4l-3.2,5.5,3.2,5.5Z"/>
        <path d="M77,44.3h-6.9l-3.5-6,3.5-6h6.9l3.5,6-3.5,6ZM70.4,43.8h6.4l3.2-5.5-3.2-5.5h-6.4l-3.2,5.5,3.2,5.5Z"/>
        <path d="M87,38.5h-6.9l-3.5-6,3.5-6h6.9l3.5,6-3.5,6ZM80.3,38h6.4l3.2-5.5-3.2-5.5h-6.4l-3.2,5.5,3.2,5.5Z"/>
        <path d="M87,50.1h-6.9l-3.5-6,3.5-6h6.9l3.5,6-3.5,6ZM80.3,49.6h6.4l3.2-5.5-3.2-5.5h-6.4l-3.2,5.5,3.2,5.5Z"/>
        <path d="M96.9,44.3h-6.9l-3.5-6,3.5-6h6.9l3.5,6-3.5,6ZM90.3,43.8h6.4l3.2-5.5-3.2-5.5h-6.4l-3.2,5.5,3.2,5.5Z"/>
        <path d="M106.9,38.5h-6.9l-3.5-6,3.5-6h6.9l3.5,6-3.5,6ZM100.2,38h6.4l3.2-5.5-3.2-5.5h-6.4l-3.2,5.5,3.2,5.5Z"/>
        <path d="M47.1,73.1h-6.9l-3.5-6,3.5-6h6.9l3.5,6-3.5,6ZM40.5,72.6h6.4l3.2-5.5-3.2-5.5h-6.4l-3.2,5.5,3.2,5.5Z"/>
        <path d="M106.9,50.1h-6.9l-3.5-6,3.5-6h6.9l3.5,6-3.5,6ZM100.2,49.6h6.4l3.2-5.5-3.2-5.5h-6.4l-3.2,5.5,3.2,5.5Z"/>
      </g>
    </g>
  </g>
</svg>