<?xml version="1.0" encoding="UTF-8"?>
<svg id="Ebene_1" xmlns="http://www.w3.org/2000/svg" version="1.1" xmlns:xlink="http://www.w3.org/1999/xlink" viewBox="0 0 100.1 100.1">
  <!-- Generator: Adobe Illustrator 29.5.1, SVG Export Plug-In . SVG Version: 2.1.0 Build 141)  -->
  <defs>
    <style>
      .st0 {
        fill: url(#Unbenannter_Verlauf_7);
      }

      .st1 {
        fill-rule: evenodd;
      }
    </style>
    <linearGradient id="Unbenannter_Verlauf_7" data-name="Unbenannter Verlauf 7" x1="-203" y1="-115.7" x2="103" y2="-115.5" gradientTransform="translate(61.4 77.9) scale(.2)" gradientUnits="userSpaceOnUse">
      <stop offset="0" stop-color="#ad63a3"/>
      <stop offset=".2" stop-color="#b067a6"/>
      <stop offset=".5" stop-color="#fdfdfd"/>
      <stop offset=".8" stop-color="#b068a7"/>
      <stop offset="1" stop-color="#ad63a3"/>
    </linearGradient>
  </defs>
  <g id="Shape_2">
    <path class="st1" d="M97.8,54.9c-.3-1.1-1.4-3.2-2.5-5-.9-1.5-1.6-2.5-2-4.3-.4-1.6-.2-3-.5-4.3-.4-2.4-1.6-3.9-3.4-6.5-1.6-2.2-2.7-4.4-4.3-6-2-2.1-4-3.4-7-5-3.7-2.1-7.2-4.1-9.8-4.8-2.8-.8-5.3-1.1-8.2-1.2-5.1-.2-9.6.1-13.7.7-8.3,1.2-14.5,3.4-22.6,5.8-2,.6-5.5,1.7-8.6,4.1-1.3,1-3.3,3-5,5-1.2,1.3-2.2,2.6-2.9,3.8-.8,1.4-1.7,3.6-2.4,6-.3,1.1-.7,3.2-1,5-.2,1.3-.4,2.4-.2,3.4.2,1.1,1.3,2.8,1,4.3-.3,1.3-1.2,1.9-1.7,2.9-.7,1.6-.4,3-.2,4.3.3,2.7-.4,4.3.2,7,.7,2.9,1.9,5.1,3.4,6.7,1.4,1.7,3.3,3,5.3,3.8,1.9.8,4,1.2,6,1.2,1.2,0,3.7-.5,6-1.4,2.1-.8,3.4-1.7,5.5-1.9,2-.2,3.8.2,4.8.5,3,.8,4.9.3,7.9,1,1.9.4,3.9,1,6.5.7,2.1-.2,3.5-.9,5.8-1.9,2.3-1.1,4.5-2.1,6.5-2.6,1.9-.5,3.7-.9,5.5-1,3.9-.2,8.4,1,10.3,1.2,2.4.2,6.6,0,7.9,0,1,0,3.2,0,5.3-1.2,2.1-1.1,3.1-2.8,4.1-4.3,1.7-2.8,3.4-5.9,3.8-7.4,1-3.6.8-6.5.2-8.4Z"/>
  </g>
  <path class="st0" d="M46.1,71.7h-.5c-1.3,0-1.9-.6-2.3-1.8l-1.3-3.2c-.5-.9-.8-1.3-1.7-.6-4.2,4.4-11.7,6.9-12.6-1.5s.8-8.2,3.6-11.9c5.7-7.6-9-9.5-11.1-3.2-.4,1.7-.4,3.5,0,5.4-1.2,2.4-1.2,3.5,1.7,2.3,2-1.2,5.4-3.1,4.7,1.1l-1.2,4.1c-.2.8-.4,1.6,0,2.3,2.4,3.4,1.2,7.7-3.2,4.4-.5-.3-.9-.2-1.3.2-5.5,5.7-9.8-1.4-8.4-6.8,1.7-2.2,2.1-5,2-7.7-1.3-7.9.3-13.3,7.3-18,10.2-6.8,23.7-8.3,35.7-7.8s23.9,4.5,25.8,16.5c-.8,2.3-.7,4.4.3,6.2,5,6.3,6.7,14.7-4.1,15.5s-4.5,0-6.7-.1c-9.2-1.4-17.3-1.5-25.1,4.3l-1.5.4Z"/>
  <g id="Shape_4">
    <path class="st1" d="M71.1,49.9c0-.9,0-1.9-.2-2.4-.2-.7-.8-2-1.9-3.1-1.1-1.2-2.6-2.1-4.3-2.6-1.4-.4-2.5-.4-4.1-.5-2.6-.1-4.5-.4-6.2.2-.8.3-2.5,1.5-4.1,2.9-.4.4-1,1-1.4,1.9-.3.7-.7,2.1,0,3.4.4.8,1.1,1.3,1.9,1.7,1.6.8,3.7,1.2,4.1,1.2,1.3,0,3.7.4,5.8.5,2.2,0,3.8-.4,6-.2,1.6,0,3.5.3,4.3-.8.3-.4.3-1.1.2-2Z"/>
  </g>
</svg>