<?xml version="1.0" encoding="UTF-8"?>
<svg id="Ebene_1" xmlns="http://www.w3.org/2000/svg" version="1.1" xmlns:xlink="http://www.w3.org/1999/xlink" viewBox="0 0 73.5 73.5">
  <!-- Generator: Adobe Illustrator 29.5.1, SVG Export Plug-In . SVG Version: 2.1.0 Build 141)  -->
  <defs>
    <style>
      .st0 {
        fill: url(#Unbenannter_Verlauf_7);
      }
    </style>
    <linearGradient id="Unbenannter_Verlauf_7" data-name="Unbenannter Verlauf 7" x1="-98.9" y1="-218.9" x2="-98.8" y2="18.1" gradientTransform="translate(60.5 60.3) scale(.2)" gradientUnits="userSpaceOnUse">
      <stop offset="0" stop-color="#f4d04c"/>
      <stop offset=".3" stop-color="#f3c634"/>
      <stop offset="1" stop-color="#eb2d18"/>
    </linearGradient>
  </defs>
  <g id="Ellipse_2">
    <ellipse cx="36.8" cy="36.8" rx="36.8" ry="36.8"/>
  </g>
  <path class="st0" d="M39.1,7.9c13.2,0,25,11.4,26.4,24.4,1.1,10.4-1.4,19.2-9.3,26.3s-14,7.5-22.8,6.8c-13.3-1-24.7-12.1-25.4-25.6.1-2.1-.2-4.4,0-6.5.2-13.2,13.2-25.5,26.3-25.6h4.8Z"/>
  <g id="Shape_572">
    <path d="M49.8,45.4s0,0,0,0c0,0,0,0,0,0ZM49.6,45.2c-.3-.4-1-1.1-1-1,0,0,.2.2.4.5.3.2.5.4.6.6ZM51.9,49.2c-.2-.7-.6-1.5-1.2-2.4-.2-.4-.5-.9-1-1.4-.2-.2-.3-.3-.5-.5,0-.1-.2-.2-.3-.3-.4-.3-.8-.7-1.4-1.1-.5-.3-1.1-.6-1.7-1-.9-.4-1.8-1-2.4-1.2-.8-.3-1.7-.5-2.6-.7-.6-.1-1.3-.2-1.9-.2-.6,0-1.1,0-1.7,0-.6,0-1.1,0-1.7,0-.6,0-1.3.1-1.9.2-1,.2-1.9.4-2.6.7-.6.2-1.5.7-2.4,1.2-.7.4-1.3.8-1.9,1.2-.8.6-1.4,1-1.9,1.7-.3.4-.6.9-1,1.4-.6.9-1,1.7-1.2,2.4-.1.5-.2,1.2-.2,1.9,0,.8.1,1.5.2,1.9.2.6.5,1.1.7,1.4.4.5.9.9,1.4,1.2.6.3,1.3.5,1.9.5.3,0,.9,0,1.4-.2.7-.2,1.3-.4,1.7-.7.6-.4,1-.9,1.4-1.2.5-.4,1.1-.6,1.7-1,.5-.3.9-.5,1.4-.7.4-.1.8-.2,1.3-.3.4,0,.7,0,1.1,0,.4,0,.9,0,1,0,.2,0,.4,0,.6,0,.6,0,1.2,0,1.8.3.6.2.9.4,1.4.7.6.3,1.2.6,1.7,1,.4.3.9.8,1.4,1.2.4.3,1,.5,1.7.7.6.2,1.1.2,1.4.2.7,0,1.3-.2,1.9-.5.6-.3,1.1-.7,1.4-1.2.3-.3.5-.8.7-1.4.1-.4.2-1.1.2-1.9,0-.8,0-1.4-.2-1.9Z"/>
  </g>
  <g id="Ellipse_3">
    <ellipse cx="27" cy="24.1" rx="3.6" ry="6.9"/>
  </g>
  <g id="Ellipse_3_copy">
    <ellipse cx="47" cy="24.1" rx="3.6" ry="6.9"/>
  </g>
</svg>