<?xml version="1.0" encoding="UTF-8"?>
<svg id="Ebene_6" xmlns="http://www.w3.org/2000/svg" version="1.1" viewBox="0 0 38.6 38.7">
  <polygon
    points="1.9 12.6 1.9 16.4 10.7 16.4 10.7 17.2 1.9 17.2 1.9 19.3 10.7 19.3 10.7 20.1 1.9 20.1 1.9 22.2 10.7 22.2 10.7 23 1.9 23 1.9 25.1 10.7 25.1 10.7 25.9 1.9 25.9 1.9 28.1 10.7 28.1 10.7 28.8 1.9 28.8 1.9 36.8 13.4 36.8 13.4 12.6 1.9 12.6" />
  <path
    d="M23.1,12.9v23.8h12.3V12.9h-12.3ZM26.1,35.2h-1.8v-3.5h1.8v3.5ZM26.1,24.3h-1.8v-3.5h1.8v3.5ZM28.6,29.8h-1.8v-3.5h1.8v3.5ZM28.6,18.8h-1.8v-3.5h1.8v3.5ZM31.7,35.2h-1.8v-3.5h1.8v3.5ZM31.7,24.3h-1.8v-3.5h1.8v3.5ZM34.2,29.8h-1.8v-3.5h1.8v3.5ZM34.2,18.8h-1.8v-3.5h1.8v3.5Z" />
  <path
    d="M12.2,2.4v1.7h4.6v.5h-4.6v1.7h11.2v.8h-11.2v.6h2.2v.4h-2.2v3.3h2.4v24.4h3.7v-6.7h.8c-.6,0-1-.5-1-1s.5-1,1-1,1,.5,1,1-.5,1-1,1h.8v6.7h2.1V11.8h3.2V2.4h-12.9Z" />
  <path
    d="M33,10.2c-1.7,0-3.2-1.4-3.2-3.2s1.4-3.2,3.2-3.2,1.6.3,2.2.9c-.7-1.1-2-1.8-3.4-1.8-2.3,0-4.1,1.8-4.1,4.1s1.8,4.1,4.1,4.1,2.7-.7,3.4-1.8c-.6.5-1.3.9-2.2.9Z" />
</svg>