<svg viewBox="-1.1, -1.1, 2.2, 2.2">
 <path class="s-sYs9p7LIfgJe" d="M0,-1A1,1,0,0,1,0.05495017991244574,-0.9984890974505379L0.1291433597920614,-0.8906862481377033A0.9,0.9,0,0,1,0.24429640487856685,-0.8662097128082825L0.3559226163891589,-0.9345154311955987A1,1,0,0,1,0.40673664307580015,-0.9135454576426009A1,1,0,0,1,0.4563215909004758,-0.8898149277675997L0.48025306432405035,-0.761155039533576A0.9,0.9,0,0,1,0.5754951017825263,-0.6919576488661136L0.7052531588616177,-0.7089555570807735A1,1,0,0,1,0.7431448254773942,-0.6691306063588582A1,1,0,0,1,0.7787908532703041,-0.6272836733588016L0.7483226510722907,-0.5000132097176421A0.9,0.9,0,0,1,0.8071854673794195,-0.39805982119710115L0.9326390231430941,-0.36081082648764196A1,1,0,0,1,0.9510565162951535,-0.30901699437494745A1,1,0,0,1,0.9666001020169074,-0.25628937313299655L0.8870004531522699,-0.15241455346412228A0.9,0.9,0,0,1,0.8993061326166506,-0.0353338341831618L0.9987631275635946,0.04972137386865781A1,1,0,0,1,0.9945218953682734,0.10452846326765333A1,1,0,0,1,0.9872754118385365,0.1590196880233642L0.872307818736079,0.22153796372609375A0.9,0.9,0,0,1,0.8359285975847318,0.3335016937588525L0.8921920137501849,0.45165629697856524A1,1,0,0,1,0.8660254037844387,0.4999999999999998A1,1,0,0,1,0.837241833837739,0.5468328004719722L0.7067852377926703,0.5571845543788507A0.9,0.9,0,0,1,0.6280114138575122,0.6446717490821888L0.6313527954493778,0.7754957431722344A1,1,0,0,1,0.5877852522924732,0.8090169943749473A1,1,0,0,1,0.5424415366631188,0.8400935538989419L0.4190530682926004,0.7964888737167376A0.9,0.9,0,0,1,0.311505351369744,0.8443722023302357L0.26134694315528967,0.96524493021377A1,1,0,0,1,0.20791169081775931,0.9781476007338057A1,1,0,0,1,0.15384816987279032,0.9880944998464434L0.05886281630712881,0.8980730309147431A0.9,0.9,0,0,1,-0.058862816307128585,0.8980730309147431L-0.15384816987278965,0.9880944998464435A1,1,0,0,1,-0.20791169081775907,0.9781476007338057A1,1,0,0,1,-0.2613469431552899,0.96524493021377L-0.3115053513697434,0.8443722023302359A0.9,0.9,0,0,1,-0.41905306829260025,0.7964888737167377L-0.5424415366631189,0.8400935538989418A1,1,0,0,1,-0.587785252292473,0.8090169943749476A1,1,0,0,1,-0.6313527954493777,0.7754957431722345L-0.628011413857512,0.6446717490821889A0.9,0.9,0,0,1,-0.7067852377926702,0.5571845543788508L-0.8372418338377386,0.5468328004719728A1,1,0,0,1,-0.8660254037844384,0.5000000000000004A1,1,0,0,1,-0.8921920137501845,0.4516562969785659L-0.8359285975847319,0.3335016937588523A0.9,0.9,0,0,1,-0.872307818736079,0.22153796372609358L-0.9872754118385365,0.1590196880233642A1,1,0,0,1,-0.9945218953682734,0.10452846326765336A1,1,0,0,1,-0.9987631275635945,0.0497213738686585L-0.8993061326166506,-0.03533383418316178A0.9,0.9,0,0,1,-0.8870004531522699,-0.15241455346412205L-0.9666001020169074,-0.2562893731329963A1,1,0,0,1,-0.9510565162951536,-0.30901699437494723A1,1,0,0,1,-0.9326390231430941,-0.36081082648764173L-0.8071854673794197,-0.3980598211971009A0.9,0.9,0,0,1,-0.7483226510722909,-0.5000132097176416L-0.778790853270304,-0.6272836733588018A1,1,0,0,1,-0.7431448254773946,-0.6691306063588578A1,1,0,0,1,-0.705253158861618,-0.7089555570807732L-0.5754951017825267,-0.6919576488661132A0.9,0.9,0,0,1,-0.48025306432405024,-0.761155039533576L-0.4563215909004759,-0.8898149277675997A1,1,0,0,1,-0.40673664307580015,-0.913545457642601A1,1,0,0,1,-0.3559226163891587,-0.9345154311955988L-0.24429640487856685,-0.8662097128082825A0.9,0.9,0,0,1,-0.1291433597920615,-0.8906862481377033L-0.05495017991244524,-0.9984890974505379A1,1,0,0,1,-2.4492935982947064e-16,-1L0,-0.8A0.8,0.8,0,1,0,0,0.8A0.8,0.8,0,1,0,0,-0.8Z"></path>

<path class="s-sYs9p7LIfgJe" d="M0,-1A1,1,0,0,1,0.05495017991244574,-0.9984890974505379L0.09798018736676811,-0.8946507044000876A0.9,0.9,0,0,1,0.2139173030935558,-0.8742078628319353L0.2898671056445673,-0.9570669052188783A1,1,0,0,1,0.3420201433256687,-0.9396926207859084A1,1,0,0,1,0.39313966279373386,-0.9194787684000263L0.3980598211971012,-0.8071854673794194A0.9,0.9,0,0,1,0.500013209717642,-0.7483226510722907L0.5997221402779842,-0.8002083194146346A1,1,0,0,1,0.6427876096865393,-0.766044443118978A1,1,0,0,1,0.6839107002186184,-0.7295657298191021L0.65012756585378,-0.6223617502040425A0.9,0.9,0,0,1,0.7258001438407343,-0.5321786835272242L0.837241833837739,-0.5468328004719724A1,1,0,0,1,0.8660254037844386,-0.5000000000000001A1,1,0,0,1,0.8921920137501848,-0.4516562969785656L0.8237803312075024,-0.3624720208728635A0.9,0.9,0,0,1,0.8640448689473359,-0.25184611262789286L0.9737778058631857,-0.2275011753997762A1,1,0,0,1,0.984807753012208,-0.17364817766693041A1,1,0,0,1,0.9928618030717181,-0.11927044898539162L0.8980730309147431,-0.058862816307128744A0.9,0.9,0,0,1,0.8980730309147431,0.05886281630712863L0.9928618030717181,0.11927044898539173A1,1,0,0,1,0.984807753012208,0.1736481776669303A1,1,0,0,1,0.9737778058631857,0.2275011753997763L0.8640448689473359,0.25184611262789275A0.9,0.9,0,0,1,0.8237803312075025,0.3624720208728634L0.8921920137501849,0.45165629697856524A1,1,0,0,1,0.8660254037844387,0.4999999999999998A1,1,0,0,1,0.837241833837739,0.5468328004719722L0.7258001438407345,0.532178683527224A0.9,0.9,0,0,1,0.6501275658537801,0.6223617502040424L0.6839107002186187,0.7295657298191018A1,1,0,0,1,0.6427876096865395,0.7660444431189779A1,1,0,0,1,0.5997221402779842,0.8002083194146346L0.500013209717642,0.7483226510722908A0.9,0.9,0,0,1,0.3980598211971012,0.8071854673794194L0.3931396627937342,0.9194787684000262A1,1,0,0,1,0.3420201433256689,0.9396926207859083A1,1,0,0,1,0.28986710564456686,0.9570669052188784L0.21391730309355564,0.8742078628319353A0.9,0.9,0,0,1,0.09798018736676811,0.8946507044000876L0.054950179912446,0.9984890974505379A1,1,0,0,1,1.2246467991473532e-16,1A1,1,0,0,1,-0.054950179912445316,0.9984890974505379L-0.09798018736676829,0.8946507044000876A0.9,0.9,0,0,1,-0.2139173030935558,0.8742078628319353L-0.2898671056445671,0.9570669052188783A1,1,0,0,1,-0.34202014332566866,0.9396926207859084A1,1,0,0,1,-0.3931396627937336,0.9194787684000264L-0.3980598211971013,0.8071854673794194A0.9,0.9,0,0,1,-0.5000132097176421,0.7483226510722907L-0.599722140277984,0.8002083194146348A1,1,0,0,1,-0.6427876096865393,0.766044443118978A1,1,0,0,1,-0.6839107002186182,0.7295657298191023L-0.6501275658537796,0.6223617502040428A0.9,0.9,0,0,1,-0.7258001438407344,0.5321786835272241L-0.8372418338377386,0.5468328004719728A1,1,0,0,1,-0.8660254037844384,0.5000000000000004A1,1,0,0,1,-0.8921920137501845,0.4516562969785659L-0.8237803312075024,0.3624720208728636A0.9,0.9,0,0,1,-0.8640448689473358,0.25184611262789314L-0.973777805863186,0.22750117539977546A1,1,0,0,1,-0.984807753012208,0.17364817766693033A1,1,0,0,1,-0.992861803071718,0.11927044898539241L-0.8980730309147431,0.05886281630712926A0.9,0.9,0,0,1,-0.8980730309147432,-0.058862816307128134L-0.992861803071718,-0.11927044898539205A1,1,0,0,1,-0.9848077530122081,-0.17364817766692997A1,1,0,0,1,-0.9737778058631859,-0.22750117539977596L-0.8640448689473359,-0.2518461126278928A0.9,0.9,0,0,1,-0.8237803312075025,-0.36247202087286334L-0.8921920137501848,-0.4516562969785656A1,1,0,0,1,-0.8660254037844386,-0.5000000000000001A1,1,0,0,1,-0.8372418338377393,-0.5468328004719718L-0.7258001438407347,-0.5321786835272239A0.9,0.9,0,0,1,-0.6501275658537805,-0.622361750204042L-0.6839107002186181,-0.7295657298191023A1,1,0,0,1,-0.6427876096865396,-0.7660444431189778A1,1,0,0,1,-0.5997221402779843,-0.8002083194146346L-0.500013209717642,-0.7483226510722907A0.9,0.9,0,0,1,-0.39805982119710126,-0.8071854673794194L-0.3931396627937339,-0.9194787684000263A1,1,0,0,1,-0.3420201433256686,-0.9396926207859084A1,1,0,0,1,-0.28986710564456786,-0.957066905218878L-0.21391730309355614,-0.8742078628319352A0.9,0.9,0,0,1,-0.09798018736676863,-0.8946507044000876L-0.05495017991244524,-0.9984890974505379A1,1,0,0,1,-2.4492935982947064e-16,-1L0,-0.8A0.8,0.8,0,1,0,0,0.8A0.8,0.8,0,1,0,0,-0.8Z"></path>

<path class="s-sYs9p7LIfgJe" d="M0,-1A1,1,0,0,1,0.05495017991244574,-0.9984890974505379L0.1291433597920614,-0.8906862481377033A0.9,0.9,0,0,1,0.24429640487856685,-0.8662097128082825L0.3559226163891589,-0.9345154311955987A1,1,0,0,1,0.40673664307580015,-0.9135454576426009A1,1,0,0,1,0.4563215909004758,-0.8898149277675997L0.48025306432405035,-0.761155039533576A0.9,0.9,0,0,1,0.5754951017825263,-0.6919576488661136L0.7052531588616177,-0.7089555570807735A1,1,0,0,1,0.7431448254773942,-0.6691306063588582A1,1,0,0,1,0.7787908532703041,-0.6272836733588016L0.7483226510722907,-0.5000132097176421A0.9,0.9,0,0,1,0.8071854673794195,-0.39805982119710115L0.9326390231430941,-0.36081082648764196A1,1,0,0,1,0.9510565162951535,-0.30901699437494745A1,1,0,0,1,0.9666001020169074,-0.25628937313299655L0.8870004531522699,-0.15241455346412228A0.9,0.9,0,0,1,0.8993061326166506,-0.0353338341831618L0.9987631275635946,0.04972137386865781A1,1,0,0,1,0.9945218953682734,0.10452846326765333A1,1,0,0,1,0.9872754118385365,0.1590196880233642L0.872307818736079,0.22153796372609375A0.9,0.9,0,0,1,0.8359285975847318,0.3335016937588525L0.8921920137501849,0.45165629697856524A1,1,0,0,1,0.8660254037844387,0.4999999999999998A1,1,0,0,1,0.837241833837739,0.5468328004719722L0.7067852377926703,0.5571845543788507A0.9,0.9,0,0,1,0.6280114138575122,0.6446717490821888L0.6313527954493778,0.7754957431722344A1,1,0,0,1,0.5877852522924732,0.8090169943749473A1,1,0,0,1,0.5424415366631188,0.8400935538989419L0.4190530682926004,0.7964888737167376A0.9,0.9,0,0,1,0.311505351369744,0.8443722023302357L0.26134694315528967,0.96524493021377A1,1,0,0,1,0.20791169081775931,0.9781476007338057A1,1,0,0,1,0.15384816987279032,0.9880944998464434L0.05886281630712881,0.8980730309147431A0.9,0.9,0,0,1,-0.058862816307128585,0.8980730309147431L-0.15384816987278965,0.9880944998464435A1,1,0,0,1,-0.20791169081775907,0.9781476007338057A1,1,0,0,1,-0.2613469431552899,0.96524493021377L-0.3115053513697434,0.8443722023302359A0.9,0.9,0,0,1,-0.41905306829260025,0.7964888737167377L-0.5424415366631189,0.8400935538989418A1,1,0,0,1,-0.587785252292473,0.8090169943749476A1,1,0,0,1,-0.6313527954493777,0.7754957431722345L-0.628011413857512,0.6446717490821889A0.9,0.9,0,0,1,-0.7067852377926702,0.5571845543788508L-0.8372418338377386,0.5468328004719728A1,1,0,0,1,-0.8660254037844384,0.5000000000000004A1,1,0,0,1,-0.8921920137501845,0.4516562969785659L-0.8359285975847319,0.3335016937588523A0.9,0.9,0,0,1,-0.872307818736079,0.22153796372609358L-0.9872754118385365,0.1590196880233642A1,1,0,0,1,-0.9945218953682734,0.10452846326765336A1,1,0,0,1,-0.9987631275635945,0.0497213738686585L-0.8993061326166506,-0.03533383418316178A0.9,0.9,0,0,1,-0.8870004531522699,-0.15241455346412205L-0.9666001020169074,-0.2562893731329963A1,1,0,0,1,-0.9510565162951536,-0.30901699437494723A1,1,0,0,1,-0.9326390231430941,-0.36081082648764173L-0.8071854673794197,-0.3980598211971009A0.9,0.9,0,0,1,-0.7483226510722909,-0.5000132097176416L-0.778790853270304,-0.6272836733588018A1,1,0,0,1,-0.7431448254773946,-0.6691306063588578A1,1,0,0,1,-0.705253158861618,-0.7089555570807732L-0.5754951017825267,-0.6919576488661132A0.9,0.9,0,0,1,-0.48025306432405024,-0.761155039533576L-0.4563215909004759,-0.8898149277675997A1,1,0,0,1,-0.40673664307580015,-0.913545457642601A1,1,0,0,1,-0.3559226163891587,-0.9345154311955988L-0.24429640487856685,-0.8662097128082825A0.9,0.9,0,0,1,-0.1291433597920615,-0.8906862481377033L-0.05495017991244524,-0.9984890974505379A1,1,0,0,1,-2.4492935982947064e-16,-1L0,-0.8A0.8,0.8,0,1,0,0,0.8A0.8,0.8,0,1,0,0,-0.8Z"></path>

</svg>