<?xml version="1.0" encoding="UTF-8"?>
<svg id="Ebene_4" xmlns="http://www.w3.org/2000/svg" version="1.1" viewBox="0 0 38.7 38.7">
  <path
    d="M24.1,4v10.5h10.5v9.5h-10.5v10.5h-9.5v-10.5H4v-9.5h10.5V4h9.5M26.1,2h-13.5v10.5H2v13.5h10.5v10.5h13.5v-10.5h10.5v-13.5h-10.5V2h0Z" />
  <polygon points="22.6 9.1 22.6 6.9 22.6 5.5 16 5.5 16 15.7 22.6 9.1" />
  <polygon points="15.7 15.9 5.6 15.9 5.6 22.6 9.1 22.6 15.7 15.9" />
  <rect x="24" y="15.9" width="9" height="6.6" />
  <polygon
    points="13.9 22.6 16 22.6 16 32.9 18.7 32.9 18.7 25.5 21.1 25.5 21.1 32.9 22.6 32.9 22.6 27.1 22.6 22.6 22.6 15.9 22.6 13.9 13.9 22.6" />
</svg>