<?xml version="1.0" encoding="UTF-8"?>
<svg xmlns="http://www.w3.org/2000/svg" version="1.1" viewBox="0 0 38.7 38.7">
  <path d="M15.5,10.7h4.5v-.8h5v-4.4h-5v-1.5h-4.5v1.5h-5v4.4h5v.8ZM16.4,4.9h2.6v5h-2.6v-5Z" />
  <path
    d="M0,0v38.7h38.7V0H0ZM31.5,2.6l-.2,2.9h-4.5v4.4h3.2v1.2h-3.2v15h-1.9v-15h-14.6v15h-1.9v-15h-3.2v-1.2h3.2v-4.4h-4.4l-.2-2.9c9.2.6,18.4.6,27.7,0ZM7.7,32.5H1.9l.9-5.5h12.2v-7.4h.6c-.4-.2-.7-.6-.7-1.1s.5-1.2,1.2-1.2,1.2.5,1.2,1.2-.3.9-.7,1.1h.5v7.4h11.9v2.6H7.7v2.9ZM8.2,30h22.2v1.8H8.2v-1.8ZM10.1,32.2h22.2v1.8H10.1v-1.8ZM34.2,36.9H12v-2.5h22.2v2.5Z" />
</svg>