<?xml version="1.0" encoding="UTF-8"?>
<svg id="Ebene_3" xmlns="http://www.w3.org/2000/svg" version="1.1" viewBox="0 0 38.7 38.7">
  <path
    d="M31.3,5.5l.2-2.9q-13.9.9-27.7,0l.2,2.9h4.4v4.4h-3.2v1.2h3.2v15h1.9v-15h14.6v15h1.9v-15h3.2v-1.2h-3.2v-4.4h4.4ZM25,9.9h-5v.8h-4.5v-.8h-5v-4.4h5v-1.5h4.5v1.5h5v4.4Z" />
  <rect x="16.4" y="4.9" width="2.6" height="5" />
  <polygon points="29 27 2.8 27 1.9 32.5 7.7 32.5 7.7 29.6 29 29.6 29 27" />
  <rect x="15" y="19.6" width="2.1" height="7.4" />
  <circle cx="16.1" cy="18.5" r="1.2" />
  <rect x="12" y="34.4" width="22.2" height="2.5" />
  <rect x="10.1" y="32.2" width="22.2" height="1.8" />
  <rect x="8.2" y="30" width="22.2" height="1.8" />
</svg>