<?xml version="1.0" encoding="UTF-8"?>
<svg xmlns="http://www.w3.org/2000/svg" version="1.1" viewBox="0 0 38.6 38.7">
  <rect x="29.9" y="20.8" width="1.8" height="3.5" />
  <rect x="29.9" y="31.7" width="1.8" height="3.5" />
  <rect x="32.4" y="26.3" width="1.8" height="3.5" />
  <rect x="32.4" y="15.3" width="1.8" height="3.5" />
  <path d="M20.1,28.1c0-.5-.5-1-1-1s-1,.5-1,1,.4,1,1,1,1-.5,1-1Z" />
  <rect x="24.3" y="20.8" width="1.8" height="3.5" />
  <rect x="26.8" y="15.3" width="1.8" height="3.5" />
  <path
    d="M0,0v38.7h38.7V0H0ZM31.8,2.9c1.4,0,2.7.7,3.4,1.8-.6-.6-.4-.9-2.2-.9s-3.2,1.4-3.2,3.2,1.5,3.2,3.2,3.2,1.6-.4,2.2-.9c-.7,1.1-1.1,1.8-3.4,1.8s-4.1-1.8-4.1-4.1,1.8-4.1,4.1-4.1ZM13.4,36.8H1.9v-8h8.8v-.7H1.9v-2.2h8.8v-.8H1.9v-2.1h8.8v-.8H1.9v-2.1h8.8v-.8H1.9v-2.1h8.8v-.8H1.9v-3.8h11.5v24.2ZM22,35.8h-2.1v-6.7h-1.6v6.7h-3.7V11.4h-2.4v-3.3h2.2v-.4h-2.2v-.6h11.2v-.8h-11.2v-1.7h4.6v-.5h-4.6v-1.7h13v9.4h-3.2v24ZM35.4,36.7h-12.3V12.9h12.3v23.8Z" />
  <rect x="24.3" y="31.7" width="1.8" height="3.5" />
  <rect x="26.8" y="26.3" width="1.8" height="3.5" />
</svg>