<?xml version="1.0" encoding="UTF-8"?>
<svg id="Ebene_5" xmlns="http://www.w3.org/2000/svg" version="1.1" viewBox="0 0 38.7 38.7">

  <polygon points="33.7 17.7 33.7 33.2 36.3 33.2 36.3 15 33.7 17.7" />
  <polygon points="26.9 7 17.1 7 17.1 9.6 24.3 9.6 26.9 7" />
  <polygon points="27.6 14.5 27.6 7.6 24.9 10.3 24.9 17.1 32.9 17.1 35.5 14.5 27.6 14.5" />
  <path
    d="M23.6,18.1v-7.5h-10.5v7.5H2.7v18.7h5.3v-4.5h-2.2v-3.4h2.4v1.3c.1,0,.2,0,.4,0,.5,0,.9.4.9.9s-.2.7-.5.8h.2v4.9h1.3v-5.7h.2c-.3-.2-.5-.5-.5-.8,0-.5.4-.9.9-.9s.9.4.9.9-.2.7-.5.8h.2v5.7h1.8v-3.9h.2c-.3-.2-.5-.5-.5-.8,0-.5.4-.9.9-.9s.9.4.9.9-.2.7-.5.8h.2v3.9h1.8v-5.7h.2c-.3-.2-.5-.5-.5-.8,0-.5.4-.9.9-.9s.9.4.9.9-.2.7-.5.8h.2v5.7h14.8v-18.7h-8.7ZM7.7,24.6h-2.4v-3.4h2.4v3.4ZM13.5,25.6h-2.4v-3.4h2.4v3.4ZM17.9,20.4c-2,0-3.6-1.6-3.6-3.6s1.4-3.3,3.1-3.5v3.5l1.9,1.8.6-.6-1.6-1.6v-3.1c1.8.2,3.1,1.7,3.1,3.5s-1.6,3.6-3.6,3.6ZM22.9,31.2h-2.4v-3.4h2.4v3.4ZM26.4,24.3h-2.4v-3.4h2.4v3.4ZM30.5,30.2h-2.4v-3.4h2.4v3.4Z" />
  <circle cx="6.1" cy="6.5" r="3.1" />
  <polygon
    points="10.4 14.8 10.4 10.5 9.2 10.5 9.2 14.8 6.7 14.8 6.7 16.7 12.5 16.7 12.5 14.8 10.4 14.8" />
</svg>