<?xml version="1.0" encoding="UTF-8"?>
<svg xmlns="http://www.w3.org/2000/svg" version="1.1" viewBox="0 0 38.7 38.7">
  <rect x="11.1" y="22.2" width="2.4" height="3.4" />
  <rect x="28.1" y="26.8" width="2.4" height="3.4" />
  <rect x="20.5" y="27.8" width="2.4" height="3.4" />
  <rect x="24" y="20.9" width="2.4" height="3.4" />
  <path
    d="M0,0v38.7h38.7V0H0ZM17.1,7h9.8l-2.6,2.6h-7.2v-2.6ZM12.5,14.8v1.9h-5.8v-1.9h2.5v-4.3h1.2v4.3h2.1ZM6.1,3.4c1.7,0,3.1,1.4,3.1,3.1s-1.4,3.1-3.1,3.1-3.1-1.4-3.1-3.1,1.4-3.1,3.1-3.1ZM32.5,36.8h-14.8v-5.7h-.2c.3-.1.5-.3.5-.8s-.4-.9-.9-.9-.9.4-.9.9.2.6.5.8h-.2v5.7h-1.8v-3.9h-.2c.3-.1.5-.3.5-.8s-.4-.9-.9-.9-.9.4-.9.9.2.6.5.8h-.2v3.9h-1.8v-5.7h-.2c.3-.1.5-.3.5-.8s-.4-.9-.9-.9-.9.4-.9.9.2.6.5.8h-.2v5.7h-1.3v-4.9h-.2c.3-.1.5-.3.5-.8s-.4-.9-.9-.9h-.4v-1.3h-2.4v3.4h2.2v4.5H2.7v-18.7h10.4v-7.5h10.5v7.5h8.9v18.7ZM24.9,17.1v-6.8l2.7-2.7v6.9h7.9l-2.6,2.6h-8ZM36.3,33.2h-2.6v-15.5l2.6-2.7v18.2Z" />
  <path
    d="M18.3,13.3v3.1l1.6,1.6-.6.6-1.9-1.8v-3.5c-1.7.2-3.1,1.5-3.1,3.5s1.6,3.6,3.5,3.6c2,0,3.6-1.8,3.6-3.6s-1.3-3.3-3.1-3.5Z" />
  <rect x="5.3" y="21.2" width="2.4" height="3.4" />
</svg>